<svg xmlns="http://www.w3.org/2000/svg" viewBox="0 0 1210 352.97"><defs><style>.cls-1{fill:#004a7f;}</style></defs><title>Valley OBGYN Secure Message - Logo</title><g id="Layer_2" data-name="Layer 2"><g id="Layer_1-2" data-name="Layer 1"><path class="cls-1" d="M17.61,3.71,61.17,114.37,104.54,3.71h17.61L68.4,135.31H53.94L0,3.71Z"/><path class="cls-1" d="M152.36,137.16a35,35,0,0,1-12.79-2.31,31.85,31.85,0,0,1-10.28-6.4,30,30,0,0,1-6.86-9.54,28.38,28.38,0,0,1-2.5-12,25,25,0,0,1,3-12.14,27.69,27.69,0,0,1,8.44-9.36,43.51,43.51,0,0,1,13-6.12,57.68,57.68,0,0,1,16.41-2.22A80.23,80.23,0,0,1,175,78.41a65,65,0,0,1,12.79,3.52V74.14q0-11.85-6.68-18.63t-18.9-6.76q-14.66,0-30.77,11.31L126,49.49q18.72-12.6,37.63-12.6,19.1,0,29.75,10.19t10.66,28.73v39.48q0,5.74,5.19,5.93v14.09c-1.73.25-3.15.43-4.27.56a32.74,32.74,0,0,1-3.52.18,10.38,10.38,0,0,1-7.69-2.87,11.81,11.81,0,0,1-3.43-7l-.37-6.86a41.8,41.8,0,0,1-16.4,13.25A50.38,50.38,0,0,1,152.36,137.16Zm4.27-12.23a40.54,40.54,0,0,0,16.22-3.24,26.79,26.79,0,0,0,11.4-8.62c2.34-2.35,3.52-4.76,3.52-7.23V91.57a67.19,67.19,0,0,0-24.66-4.64q-12.23,0-19.92,5.19t-7.69,13.53a18.37,18.37,0,0,0,1.57,7.6,18.07,18.07,0,0,0,4.45,6.12,21.22,21.22,0,0,0,6.77,4.08A23.16,23.16,0,0,0,156.63,124.93Z"/><path class="cls-1" d="M230.58,0h16.31V110.29q0,5.37,2.88,8.43t8.06,3.06a21.27,21.27,0,0,0,4.82-.65,39,39,0,0,0,5.19-1.57l2.59,13.16a54,54,0,0,1-9.64,2.78,50.83,50.83,0,0,1-9.82,1.11q-9.45,0-14.92-5.38t-5.47-15Z"/><path class="cls-1" d="M283.59,0H299.9V110.29q0,5.37,2.88,8.43t8.06,3.06a21.2,21.2,0,0,0,4.82-.65,39,39,0,0,0,5.19-1.57l2.59,13.16a53.87,53.87,0,0,1-9.63,2.78,51,51,0,0,1-9.83,1.11q-9.45,0-14.92-5.38t-5.47-15Z"/><path class="cls-1" d="M379.05,137.16a49.25,49.25,0,0,1-20-4,47.52,47.52,0,0,1-15.57-10.84,49.49,49.49,0,0,1-10.1-16,52.32,52.32,0,0,1-3.61-19.37,51.61,51.61,0,0,1,3.61-19.27,48.92,48.92,0,0,1,10.2-15.95,48.32,48.32,0,0,1,15.66-10.84,49.35,49.35,0,0,1,20-4,47.08,47.08,0,0,1,44.95,30.67,52,52,0,0,1,3.42,18.63c0,1.36,0,2.6-.09,3.71a18,18,0,0,1-.28,2.59H347a37.56,37.56,0,0,0,3.34,13.16,33.4,33.4,0,0,0,17.33,16.87,30.11,30.11,0,0,0,12,2.41,32,32,0,0,0,8.71-1.2,38.17,38.17,0,0,0,8-3.25,27.7,27.7,0,0,0,6.58-5,20.68,20.68,0,0,0,4.36-6.68l14.08,3.9a35.39,35.39,0,0,1-6.58,9.82,43.33,43.33,0,0,1-9.64,7.69,49.16,49.16,0,0,1-12.14,5.1A51.92,51.92,0,0,1,379.05,137.16Zm33.18-56.72a34.77,34.77,0,0,0-3.43-12.69,34.17,34.17,0,0,0-7.23-9.92A33.13,33.13,0,0,0,367,51.44a31.34,31.34,0,0,0-10.1,6.48,32.88,32.88,0,0,0-7,9.92,36.3,36.3,0,0,0-3.25,12.6Z"/><path class="cls-1" d="M447.45,161.63c1.6.25,3.21.43,4.81.56s2.85.18,3.71.18a7.85,7.85,0,0,0,4-1,11.06,11.06,0,0,0,3.52-4,70.69,70.69,0,0,0,4-8.25q2.24-5.28,5.56-13.81l-41-96.76h16.87l33,82.12,30-82.12h15.57L480.44,160.71a28.18,28.18,0,0,1-8.62,11.39q-6,4.92-16.59,4.92a33.78,33.78,0,0,1-3.43-.19,41.7,41.7,0,0,1-4.35-.74Z"/><path class="cls-1" d="M641.88,136.24a56,56,0,0,1-25.3-5.66,62.19,62.19,0,0,1-19.55-15,68.22,68.22,0,0,1-12.61-21.41A70.76,70.76,0,0,1,580,69.51,68.44,68.44,0,0,1,584.7,44.3,69.67,69.67,0,0,1,597.77,23,62.87,62.87,0,0,1,617.51,8.25a56.42,56.42,0,0,1,24.75-5.47,54.14,54.14,0,0,1,25.2,5.84,64.59,64.59,0,0,1,19.47,15.29A71,71,0,0,1,704,69.69a68.41,68.41,0,0,1-4.73,25.21,69.37,69.37,0,0,1-13,21.23,62.47,62.47,0,0,1-19.65,14.64A56.42,56.42,0,0,1,641.88,136.24Zm-45-66.73a58.57,58.57,0,0,0,3.25,19.37,53.56,53.56,0,0,0,9.17,16.59A44.32,44.32,0,0,0,623.53,117a40.16,40.16,0,0,0,18.54,4.26A38.89,38.89,0,0,0,661,116.68a46.18,46.18,0,0,0,14.18-11.86,53,53,0,0,0,8.89-16.59,59.16,59.16,0,0,0-.18-38.09,51.69,51.69,0,0,0-9.27-16.5,46.74,46.74,0,0,0-14.27-11.4,41.84,41.84,0,0,0-37.17.19A45.63,45.63,0,0,0,609,34.11a53.42,53.42,0,0,0-9,16.49A58.43,58.43,0,0,0,596.84,69.51Z"/><path class="cls-1" d="M828.17,101.39a31.38,31.38,0,0,1-3.06,13.9A32.34,32.34,0,0,1,816.77,126a38.08,38.08,0,0,1-12.24,6.86,45.14,45.14,0,0,1-14.92,2.41H727.15V3.71h65.43a26.07,26.07,0,0,1,12.42,3,31.07,31.07,0,0,1,9.45,7.7,35.26,35.26,0,0,1,6,10.75,36.16,36.16,0,0,1,2.13,12.14,35.09,35.09,0,0,1-4.91,18.16,30.13,30.13,0,0,1-14,12.42,33.11,33.11,0,0,1,17.89,12.33A35,35,0,0,1,828.17,101.39ZM743.83,18.16V62.1h41.89a18.67,18.67,0,0,0,8.15-1.77,20.06,20.06,0,0,0,6.4-4.72,23.07,23.07,0,0,0,5.84-15.39,25.53,25.53,0,0,0-1.48-8.71,23.19,23.19,0,0,0-4-7,17.57,17.57,0,0,0-6.12-4.64,18.16,18.16,0,0,0-7.69-1.67ZM811.3,98.43a24.19,24.19,0,0,0-1.58-8.62,24.71,24.71,0,0,0-4.26-7.33,20.15,20.15,0,0,0-6.4-5,18,18,0,0,0-8.15-1.85H743.83v45.22h45.78a19.54,19.54,0,0,0,8.53-1.85,23.59,23.59,0,0,0,6.86-4.91,22.66,22.66,0,0,0,6.3-15.66Z"/><path class="cls-1" d="M944.38,117.52q-17.42,18.72-40,18.72A52.7,52.7,0,0,1,880,130.49a64.32,64.32,0,0,1-19.37-15.1A72.66,72.66,0,0,1,847.72,94,67.49,67.49,0,0,1,843,69.14a69.85,69.85,0,0,1,17.43-46.43A60.29,60.29,0,0,1,879.88,8.16a56.13,56.13,0,0,1,24.47-5.38q19.08,0,31.41,8a52.89,52.89,0,0,1,18.82,20.76l-12.79,8.9q-5.94-11.49-15.76-17a44,44,0,0,0-22-5.57,38,38,0,0,0-18.17,4.36,44.82,44.82,0,0,0-13.9,11.49,53,53,0,0,0-8.9,16.5,60.34,60.34,0,0,0-3.15,19.37,56,56,0,0,0,3.52,19.92,54.5,54.5,0,0,0,9.64,16.5,44.8,44.8,0,0,0,14.46,11.22,40.75,40.75,0,0,0,18.16,4.07q21.51,0,38.74-20.76V82.3H916V69.69h42.45v65.62H944.38Z"/><path class="cls-1" d="M982.38,3.71l39.85,68.58,40.23-68.58h18.16l-50,83.59v48h-16.68V86.93L964,3.71Z"/><path class="cls-1" d="M1115.47,34.85V135.31h-16.68V3.71h13l81.56,102.5V3.89H1210V135.31h-14.09Z"/><path class="cls-1" d="M78.16,230.78a23.53,23.53,0,0,0-5-4.21,44.73,44.73,0,0,0-7-3.66,49.8,49.8,0,0,0-8.5-2.65,44.72,44.72,0,0,0-9.58-1q-12.94,0-18.94,4.83t-6,13.25a14.68,14.68,0,0,0,1.72,7.48,14.09,14.09,0,0,0,5.37,5.06,40.64,40.64,0,0,0,9.12,3.67q5.46,1.56,12.94,3.27a135.05,135.05,0,0,1,15.5,4.29,45.34,45.34,0,0,1,11.85,6,24.08,24.08,0,0,1,7.48,8.72,28.11,28.11,0,0,1,2.57,12.63,28.88,28.88,0,0,1-3.12,13.79,27.61,27.61,0,0,1-8.49,9.66,36.69,36.69,0,0,1-12.7,5.61,66.63,66.63,0,0,1-15.9,1.79,73.34,73.34,0,0,1-24.23-4A67.7,67.7,0,0,1,4.44,303.72l6.7-11.84a37.57,37.57,0,0,0,6.47,5.3,52.87,52.87,0,0,0,9,4.75,67.63,67.63,0,0,0,10.91,3.43,55.3,55.3,0,0,0,12.23,1.32q11.85,0,18.39-4.21t6.55-12.62A13.94,13.94,0,0,0,72.62,282a17.83,17.83,0,0,0-6.15-5.53,47.18,47.18,0,0,0-10-4.13q-6-1.8-13.64-3.67A136,136,0,0,1,28,264.29a40.29,40.29,0,0,1-10.67-5.61,21.07,21.07,0,0,1-6.47-8,26.3,26.3,0,0,1-2.18-11.22,31.6,31.6,0,0,1,3-14,29.37,29.37,0,0,1,8.26-10.28,36.09,36.09,0,0,1,12.62-6.32,57.52,57.52,0,0,1,15.9-2.1A55.63,55.63,0,0,1,84.7,219.41Z"/><path class="cls-1" d="M141.9,319.77a41.32,41.32,0,0,1-16.83-3.35A39.51,39.51,0,0,1,112,307.3a41.46,41.46,0,0,1-8.5-13.48,44.13,44.13,0,0,1-3-16.28,43.53,43.53,0,0,1,3-16.21,41.09,41.09,0,0,1,8.57-13.4,40.58,40.58,0,0,1,13.17-9.12,41.49,41.49,0,0,1,16.83-3.35A39.94,39.94,0,0,1,171.67,248a40.53,40.53,0,0,1,8.18,13.25,43.63,43.63,0,0,1,2.88,15.66c0,1.15,0,2.19-.08,3.12a16.76,16.76,0,0,1-.23,2.18H114.94a31.49,31.49,0,0,0,2.8,11.07,28.5,28.5,0,0,0,6.08,8.57,28,28,0,0,0,8.49,5.61,25.4,25.4,0,0,0,10.06,2,26.62,26.62,0,0,0,7.32-1,31.67,31.67,0,0,0,6.7-2.72,23.71,23.71,0,0,0,5.54-4.21,17.27,17.27,0,0,0,3.66-5.61l11.84,3.27a29.68,29.68,0,0,1-5.53,8.26,37,37,0,0,1-8.1,6.47,41.94,41.94,0,0,1-10.21,4.29A43.85,43.85,0,0,1,141.9,319.77Zm27.9-47.69a29.47,29.47,0,0,0-2.89-10.67,28.54,28.54,0,0,0-6.08-8.34,27.84,27.84,0,0,0-29.06-5.38,26.48,26.48,0,0,0-8.5,5.46,27.69,27.69,0,0,0-5.92,8.33,30.85,30.85,0,0,0-2.73,10.6Z"/><path class="cls-1" d="M192.55,277.38a44.37,44.37,0,0,1,3-16.21,39.69,39.69,0,0,1,8.42-13.32,40.5,40.5,0,0,1,13-9,41.33,41.33,0,0,1,16.91-3.35q12.15,0,21,5.37a35,35,0,0,1,13.33,14.42l-13.41,4.21a22.32,22.32,0,0,0-8.72-9,24.79,24.79,0,0,0-12.47-3.2,25.48,25.48,0,0,0-10.6,2.26,25.19,25.19,0,0,0-8.57,6.31,31.21,31.21,0,0,0-5.69,9.51,33.17,33.17,0,0,0-2.11,12,32.7,32.7,0,0,0,2.19,12,31.89,31.89,0,0,0,5.84,9.74,26.64,26.64,0,0,0,8.57,6.47,24.16,24.16,0,0,0,10.52,2.34,25.58,25.58,0,0,0,7.09-1,27.47,27.47,0,0,0,6.39-2.73,24.18,24.18,0,0,0,5.07-4,13.63,13.63,0,0,0,3.12-4.91l13.4,4.06a29.11,29.11,0,0,1-5.22,8.26,33,33,0,0,1-7.87,6.39A42.95,42.95,0,0,1,234,319.77a40.63,40.63,0,0,1-29.92-12.62,41.38,41.38,0,0,1-8.49-13.48A43.94,43.94,0,0,1,192.55,277.38Z"/><path class="cls-1" d="M309.43,319.77q-12.78,0-19.32-8.57t-6.55-25.56V236.86h13.72V283q0,24.94,17.3,24.94a26.41,26.41,0,0,0,15.82-5.38,31.69,31.69,0,0,0,11-14.73v-51H355.1v64.52c0,3.22,1.45,4.89,4.36,5v11.85c-1.56.2-2.78.33-3.66.38s-1.74.08-2.57.08a9.82,9.82,0,0,1-6.78-2.41,8.17,8.17,0,0,1-2.88-6l-.32-9.51a37.64,37.64,0,0,1-14.33,14.1A39.57,39.57,0,0,1,309.43,319.77Z"/><path class="cls-1" d="M421,248.86a35.27,35.27,0,0,0-18.15,5.3A27,27,0,0,0,391.72,268v50.19H378V236.86h12.78v18.86a38.33,38.33,0,0,1,11.06-13.64,27.47,27.47,0,0,1,14.65-5.84h2.65a10,10,0,0,1,1.87.15Z"/><path class="cls-1" d="M468.71,319.77a41.32,41.32,0,0,1-16.83-3.35,39.61,39.61,0,0,1-13.09-9.12,41.27,41.27,0,0,1-8.49-13.48,43.92,43.92,0,0,1-3-16.28,43.33,43.33,0,0,1,3-16.21,40.93,40.93,0,0,1,8.57-13.4A40.36,40.36,0,0,1,452,238.81a41.49,41.49,0,0,1,16.83-3.35,39.53,39.53,0,0,1,37.79,25.79,43.63,43.63,0,0,1,2.88,15.66c0,1.15,0,2.19-.07,3.12a16.45,16.45,0,0,1-.24,2.18H441.75a31.49,31.49,0,0,0,2.81,11.07,28,28,0,0,0,14.57,14.18,25.39,25.39,0,0,0,10.05,2,26.62,26.62,0,0,0,7.32-1,31.75,31.75,0,0,0,6.71-2.72,23.65,23.65,0,0,0,5.53-4.21,17.11,17.11,0,0,0,3.66-5.61l11.85,3.27a29.94,29.94,0,0,1-5.54,8.26,36.77,36.77,0,0,1-8.1,6.47,41.94,41.94,0,0,1-10.21,4.29A43.85,43.85,0,0,1,468.71,319.77Zm27.9-47.69a29.26,29.26,0,0,0-2.88-10.67,28.72,28.72,0,0,0-6.08-8.34,27.85,27.85,0,0,0-29.07-5.38,26.44,26.44,0,0,0-8.49,5.46,27.52,27.52,0,0,0-5.92,8.33,30.62,30.62,0,0,0-2.73,10.6Z"/><path class="cls-1" d="M662.12,318.22V232.65l-36.78,65.62h-8l-36.94-65.62v85.57h-14V207.56h14.8l40.06,71.85,40.21-71.85h14.65V318.22Z"/><path class="cls-1" d="M735.06,319.77a41.32,41.32,0,0,1-16.83-3.35,39.65,39.65,0,0,1-13.1-9.12,41.61,41.61,0,0,1-8.49-13.48,43.92,43.92,0,0,1-3-16.28,43.33,43.33,0,0,1,3-16.21,41.09,41.09,0,0,1,8.57-13.4,40.58,40.58,0,0,1,13.17-9.12,41.49,41.49,0,0,1,16.83-3.35A39.57,39.57,0,0,1,773,261.25a43.63,43.63,0,0,1,2.88,15.66c0,1.15,0,2.19-.08,3.12a16.76,16.76,0,0,1-.23,2.18H708.1a31.49,31.49,0,0,0,2.8,11.07,28.5,28.5,0,0,0,6.08,8.57,28,28,0,0,0,8.49,5.61,25.4,25.4,0,0,0,10.06,2,26.62,26.62,0,0,0,7.32-1,31.67,31.67,0,0,0,6.7-2.72,23.45,23.45,0,0,0,5.53-4.21,17.3,17.3,0,0,0,3.67-5.61l11.84,3.27a29.68,29.68,0,0,1-5.53,8.26,36.83,36.83,0,0,1-8.11,6.47,41.7,41.7,0,0,1-10.2,4.29A43.85,43.85,0,0,1,735.06,319.77ZM763,272.08a29.26,29.26,0,0,0-2.88-10.67,28.54,28.54,0,0,0-6.08-8.34,27.84,27.84,0,0,0-29.06-5.38,26.48,26.48,0,0,0-8.5,5.46,27.69,27.69,0,0,0-5.92,8.33,30.85,30.85,0,0,0-2.73,10.6Z"/><path class="cls-1" d="M819.68,319.77a62.94,62.94,0,0,1-19.32-3,47.59,47.59,0,0,1-16.37-8.8l5.92-9.2a57.72,57.72,0,0,0,14.34,8.19,42.34,42.34,0,0,0,15.12,2.72q8.88,0,14.11-3.5a11.27,11.27,0,0,0,5.22-9.9,8.93,8.93,0,0,0-1.41-5.07,11.76,11.76,0,0,0-4.2-3.66,34.48,34.48,0,0,0-7.17-2.8q-4.36-1.24-10.13-2.65-7.34-1.87-12.63-3.59a34.18,34.18,0,0,1-8.73-4.05,14.24,14.24,0,0,1-5-5.61,18.75,18.75,0,0,1-1.56-8.1,23.62,23.62,0,0,1,2.41-10.84,22.85,22.85,0,0,1,6.63-7.94,29.94,29.94,0,0,1,9.89-4.84,44.22,44.22,0,0,1,12.24-1.63,48.8,48.8,0,0,1,17.14,3,42.17,42.17,0,0,1,13.41,7.79l-6.24,8.26a35.12,35.12,0,0,0-11.53-6.78,39.18,39.18,0,0,0-13.09-2.26,23.88,23.88,0,0,0-12.7,3.2q-5.24,3.19-5.23,10.21a9.66,9.66,0,0,0,1,4.67,8.71,8.71,0,0,0,3.35,3.27,26.37,26.37,0,0,0,6,2.5c2.44.73,5.38,1.51,8.8,2.34,5.41,1.24,10.11,2.52,14.11,3.81a40.85,40.85,0,0,1,10,4.6,17.68,17.68,0,0,1,5.92,6.24,18,18,0,0,1,2,8.72q0,11.38-8.72,18.08T819.68,319.77Z"/><path class="cls-1" d="M896.67,319.77a62.9,62.9,0,0,1-19.32-3,47.59,47.59,0,0,1-16.37-8.8l5.92-9.2a57.72,57.72,0,0,0,14.34,8.19,42.34,42.34,0,0,0,15.12,2.72q8.88,0,14.1-3.5a11.25,11.25,0,0,0,5.22-9.9,8.92,8.92,0,0,0-1.4-5.07,11.8,11.8,0,0,0-4.21-3.66,34.37,34.37,0,0,0-7.16-2.8c-2.92-.83-6.29-1.72-10.14-2.65q-7.32-1.87-12.62-3.59a34.18,34.18,0,0,1-8.73-4.05,14.17,14.17,0,0,1-5-5.61,18.75,18.75,0,0,1-1.56-8.1,23.62,23.62,0,0,1,2.41-10.84,22.85,22.85,0,0,1,6.63-7.94,29.94,29.94,0,0,1,9.89-4.84,44.11,44.11,0,0,1,12.24-1.63,48.8,48.8,0,0,1,17.14,3,42,42,0,0,1,13.4,7.79l-6.23,8.26a35.12,35.12,0,0,0-11.53-6.78,39.18,39.18,0,0,0-13.09-2.26,23.91,23.91,0,0,0-12.71,3.2q-5.22,3.19-5.22,10.21a9.66,9.66,0,0,0,1,4.67,8.71,8.71,0,0,0,3.35,3.27,26.18,26.18,0,0,0,6,2.5q3.66,1.1,8.8,2.34c5.4,1.24,10.11,2.52,14.11,3.81a40.85,40.85,0,0,1,10,4.6,17.77,17.77,0,0,1,5.92,6.24,18,18,0,0,1,1.95,8.72q0,11.38-8.73,18.08T896.67,319.77Z"/><path class="cls-1" d="M966,319.77a29.25,29.25,0,0,1-10.75-1.95,26.6,26.6,0,0,1-8.65-5.37,25.48,25.48,0,0,1-5.77-8,23.87,23.87,0,0,1-2.1-10.05,21.11,21.11,0,0,1,2.49-10.21,23.25,23.25,0,0,1,7.09-7.87,36.48,36.48,0,0,1,10.91-5.14,48.32,48.32,0,0,1,13.8-1.87,67.7,67.7,0,0,1,12,1.09,55.38,55.38,0,0,1,10.75,3v-6.55q0-10-5.61-15.66t-15.9-5.69q-12.31,0-25.87,9.51l-4.52-8.88q15.74-10.6,31.64-10.6t25,8.57q9,8.58,9,24.16v33.19c0,3.22,1.46,4.89,4.37,5v11.85c-1.46.2-2.65.36-3.59.46a27.69,27.69,0,0,1-3,.16,8.71,8.71,0,0,1-6.46-2.42,9.9,9.9,0,0,1-2.89-5.84l-.31-5.77A35.27,35.27,0,0,1,983.87,316,42.45,42.45,0,0,1,966,319.77Zm3.59-10.28a33.93,33.93,0,0,0,13.63-2.73,22.43,22.43,0,0,0,9.59-7.25q3-3,3-6.08v-12a56.63,56.63,0,0,0-20.73-3.89q-10.29,0-16.75,4.36t-6.47,11.38a15.52,15.52,0,0,0,1.32,6.39,15.22,15.22,0,0,0,3.75,5.14,17.64,17.64,0,0,0,5.68,3.43A19.6,19.6,0,0,0,969.61,309.49Z"/><path class="cls-1" d="M1063.89,319.15a33.74,33.74,0,0,1-15.19-3.43,37.48,37.48,0,0,1-11.92-9.19,42.07,42.07,0,0,1-7.72-13.25,45.12,45.12,0,0,1-2.73-15.59,48.43,48.43,0,0,1,2.73-16.28,41.36,41.36,0,0,1,7.72-13.48,36.44,36.44,0,0,1,11.92-9.12,34.86,34.86,0,0,1,15.35-3.35,31.25,31.25,0,0,1,17.77,5,45.67,45.67,0,0,1,12.62,12.62V236.86h12.16v80.42a34.13,34.13,0,0,1-3.28,15.35,32.63,32.63,0,0,1-8.88,11.14,39.11,39.11,0,0,1-13.17,6.86,54.28,54.28,0,0,1-16.13,2.34q-13.87,0-22.52-4.75a41.63,41.63,0,0,1-14.42-13.17l8-7a30.47,30.47,0,0,0,12.47,10.76,38.39,38.39,0,0,0,16.52,3.58,36.11,36.11,0,0,0,10.68-1.56,25.09,25.09,0,0,0,8.8-4.67,23,23,0,0,0,6-7.8,25.09,25.09,0,0,0,2.26-11.06V302.94a35,35,0,0,1-5.53,6.78,34.36,34.36,0,0,1-6.94,5.14,32.86,32.86,0,0,1-7.94,3.2A34.44,34.44,0,0,1,1063.89,319.15Zm4.21-11.22a23.24,23.24,0,0,0,8.42-1.56,31.16,31.16,0,0,0,7.48-4.13,26.82,26.82,0,0,0,5.77-5.84,18.83,18.83,0,0,0,3.11-6.71V266.32a30.81,30.81,0,0,0-4.44-7.64,33.62,33.62,0,0,0-6.16-6,27.42,27.42,0,0,0-7.4-4,23.83,23.83,0,0,0-8-1.41,23.19,23.19,0,0,0-11.15,2.65,26.63,26.63,0,0,0-8.34,7,33.24,33.24,0,0,0-5.3,9.89A34.79,34.79,0,0,0,1040.2,278a31.25,31.25,0,0,0,8.11,21,28.65,28.65,0,0,0,8.8,6.46A25.08,25.08,0,0,0,1068.1,307.93Z"/><path class="cls-1" d="M1164.73,319.77a41.32,41.32,0,0,1-16.83-3.35,39.65,39.65,0,0,1-13.1-9.12,41.61,41.61,0,0,1-8.49-13.48,43.92,43.92,0,0,1-3-16.28,43.33,43.33,0,0,1,3-16.21,41.09,41.09,0,0,1,8.57-13.4,40.58,40.58,0,0,1,13.17-9.12,41.49,41.49,0,0,1,16.83-3.35,39.57,39.57,0,0,1,37.8,25.79,43.63,43.63,0,0,1,2.88,15.66c0,1.15,0,2.19-.08,3.12a16.76,16.76,0,0,1-.23,2.18h-67.48a31.49,31.49,0,0,0,2.8,11.07,28.5,28.5,0,0,0,6.08,8.57,28,28,0,0,0,8.49,5.61,25.4,25.4,0,0,0,10.06,2,26.62,26.62,0,0,0,7.32-1,31.67,31.67,0,0,0,6.7-2.72,23.45,23.45,0,0,0,5.53-4.21,17.3,17.3,0,0,0,3.67-5.61l11.84,3.27a29.68,29.68,0,0,1-5.53,8.26,36.83,36.83,0,0,1-8.11,6.47,41.7,41.7,0,0,1-10.2,4.29A43.85,43.85,0,0,1,1164.73,319.77Zm27.89-47.69a29.26,29.26,0,0,0-2.88-10.67,28.54,28.54,0,0,0-6.08-8.34,27.84,27.84,0,0,0-29.06-5.38,26.48,26.48,0,0,0-8.5,5.46,27.69,27.69,0,0,0-5.92,8.33,30.85,30.85,0,0,0-2.73,10.6Z"/></g></g></svg>